# xmcd CD database file
#
# Track frame offsets:
#	150
#	15247
#	29352
#	43165
#
# Disc length: 812 seconds
#
# Revision: 1
# Processed by: cddbd v1.5.2PL0 Copyright (c) Steve Scherf et al.
# Submitted via: CDex 1.70beta3
#
DISCID=25032a04
DTITLE=ELLEGARDEN - ジターバグ
DYEAR=2003
DGENRE=J-Loud
TTITLE0=ジターバグ
TTITLE1=New Year's Day
TTITLE2=Cakes And Ale And Everlasting Laugh
TTITLE3=サンタクロース　(LIVE@2003.9.20 SHIBUYA CLUB QUATTRO)
EXTD=YEAR: 2003
EXTT0=
EXTT1=
EXTT2=
EXTT3=
PLAYORDER=
